<?xml version="1.0" encoding="UTF-8"?>
<svg id="strawknight-mark" xmlns="http://www.w3.org/2000/svg" viewBox="0 0 339.41 483.36">
  <defs>
    <style>
      .sk-cls-1 {
        fill: #532d10;
      }

      .sk-cls-2 {
        fill: #502b10;
      }

      .sk-cls-3 {
        fill: #572e0f;
      }

      .sk-cls-4 {
        fill: #522d10;
      }

      .sk-cls-5 {
        fill: #502b0f;
      }

      .sk-cls-6 {
        fill: #502c0f;
      }

      .sk-cls-7 {
        fill: #532c0e;
      }

      .sk-cls-8 {
        fill: #512d10;
      }

      .sk-cls-9 {
        fill: #532e11;
      }

      .sk-cls-10 {
        fill: #542e10;
      }

      .sk-cls-11 {
        fill: #542e11;
      }

      .sk-cls-12 {
        fill: #583212;
      }

      .sk-cls-13 {
        fill: #582f0f;
      }

      .sk-cls-14 {
        fill: #4e2a0e;
      }

      .sk-cls-15 {
        fill: #533011;
      }

      .sk-cls-16 {
        fill: #512c10;
      }

      .sk-cls-17 {
        fill: #572b08;
      }

      .sk-cls-18 {
        fill: #e0bf00;
      }

      .sk-cls-19 {
        fill: #4e2b0f;
      }
    </style>
  </defs>
  <g id="strawknight">
    <rect class="sk-cls-18" x="5.99" y="209.05" width="46.8" height="152.66" rx="23.4" ry="23.4"/>
    <rect class="sk-cls-18" x="286.45" y="209.05" width="46.8" height="152.66" rx="23.4" ry="23.4"/>
    <rect class="sk-cls-18" x="186.64" y="326.9" width="46.8" height="152.66" rx="23.4" ry="23.4"/>
    <rect class="sk-cls-18" x="105.25" y="326.9" width="46.8" height="152.66" rx="23.4" ry="23.4"/>
    <path class="sk-cls-18" d="M242.8,406.92l-72.57,5.68-65.48-3.07c-10.62,0-37.87-8.87-37.87-19.71l-.29-167.35-4.34-17.26,4.34-7.99c0-55.02,44.39-95.1,98.29-95.1h9.62c53.9,0,98.47,41.19,98.47,96.21l3.95,10.73-4.41,11.73v158.85c0,16.45-13.61,27.29-29.73,27.29Z"/>
    <g>
      <path class="sk-cls-7" d="M63.55,219.03c-.09-.31-1.66-1.48-2.13-2.36-2.56-4.81-3.75-11.32-.76-16.22.71-1.16,2.56-2.29,2.8-3.23.32-1.26-1.23-3.95-1.41-5.82-.54-5.36,1.86-15.2,3.37-20.57,7.49-26.7,26.17-47.08,49.66-60.97.11-.47-2.8-5.57-3.35-6.25-2.28-2.81-3.32-.88-5.94-.77-5.33.24-9.63-.69-13.78-4.18-1.19-1-6.05-6.38-4.94-7.82,1.69-2.2,14.24-2.02,16.87.37l6.7,4.13c-1.42-4.45-1.15-10.26.72-14.59.75-1.74,5.23-9.37,7.47-7.8.27.19,2.2,5.24,2.48,6.12,1.62,5.13,1.37,8.81-.82,13.8-2.46,5.6-5.77,3.37-1.76,10.46.43.76,2.26,3.86,2.73,3.9,4.46-2.2,9.25-3.93,14.01-5.35,27.05-8.04,55.99-6.28,81.62,5.48.84-2.02,5.39-7.37,4.57-9-.37-.74-1.99-1.89-2.81-3.23-4.84-7.9-3.14-15.21.9-22.94,7.49,5.26,9.99,14.53,7.47,23.16l6.7-4.13c5.58-3.02,12.13-2.1,17.96-.34-4.39,8.48-10.09,12.39-19.81,11.96-1.6-.07-3.45-1.39-4.87-.42-1.15.79-2.81,6.2-4.43,7.52,19.91,11.62,36.05,27.35,45.45,48.67,3.85,8.72,8.65,24.15,7.6,33.55-.21,1.93-1.75,3.77-1.58,5.13.06.46,1.53.75,2.21,1.64,3.23,4.21,3.15,12.43.73,17.02-.42.8-2.14,2.19-2.14,2.34v18.31c1.01-.16,5.02.24,5.23,0,.32-.34.51-7.85.8-9.29,6.39-32.66,54.71-30.5,57.5,5.17,2.65,33.92-2.02,71.15.03,105.41-2.65,36.51-53.05,39.11-57.62,1.5-.09-.7-.71-1.34-.71-1.53v-75.85c-1.08-.16-5.1.16-5.27,1.22v79.16c-.19,2.2,1.93,2.91,2.92,4.55,2.26,3.71,2.3,11.92.26,15.75-.9,1.68-2.84,2.6-3.14,4.33-1.98,11.49,2.25,17.64-5.66,29.46-7.1,10.61-18.31,12.08-30.15,13.56l-.06,45.16c-1.45,27.39-36.46,38.55-53.07,16.44-2.18-2.9-5.97-12.26-5.97-15.7v-41.48c-2.61.02-5.24-.04-7.85,0-2.07.02-3.9.02-5.96,0-2.87-.02-5.74.03-8.6,0v42.97c0,1.31-2.15,7.5-2.85,9.11-11.46,26.3-51.88,19.96-55.44-8.35l-.32-47.51c-11.57-2.81-21.07-2.74-29.21-12.64-9.55-11.61-4.29-18.37-6.34-30.28-.25-1.47-2.66-3.37-3.64-5.33-2.09-4.2-2.27-10.18-.48-14.48,1.13-2.71,4.03-3.46,4.16-6.3l-.37-78.93c-.84-1.26-4.12-.54-5.65-.7v78.84c0,3.34-3.78,11.42-5.99,14.19-16.61,20.87-48.12,11.71-51.59-14.16l.03-111.39c7.02-37.79,59.47-31.43,57.55,7.11h5.98c-.83-4.6,1.13-13.59,0-17.56ZM179.76,114.78c-4.07.41-9.22,0-13.45,0-1.29,0-1.29-2.99,0-2.99h11.21c1.87,0,9.92-2.07,12.17-2.78,1.84-.58,5.07-1.57,6.14-3.2-4.45-.21-8.74-1.66-13.15-2.18-10.88-1.28-21.76-.98-32.59.89-7.1,1.23-14.24,3.15-20.77,6.13,11.12,7.93,25.24,9.92,38.62,10.59l16.2-1.14c3.87,2.48-2.82,3.18-5.2,3.55-12.63,2.01-26.57.47-38.6-3.84-2.8-1-14.6-7.21-15.74-7.12-2.74.2-20.65,10.92-20.67,12.16,33.39,16.97,73.87,20.21,109.67,9.54,2.6-.78,21.12-7.17,21.09-8.8-3.51-3.39-7.94-6.18-12.32-8.35-20.33,13.96-46.55,19.15-70.95,16.15-2.12-.26-3.14-.63-2.66-2.93,25,1.16,46.03-.36,67.74-13.37.77-.46,2.33-.7,2.51-.84,1.28-1.01-.39-1.32-.96-1.65-3.21-1.87-13.28-6.61-16.61-6.61-1.96,0-9.37,3.9-12.48,4.74-2.36.64-6.94,1.8-9.18,2.03ZM266.08,170.82c-2.44-8.53-6.36-16.81-11.34-24.16-2.24-3.31-13.67-17.96-16.81-18.3-.84-.09-13.14,5.73-15.56,6.61-30.62,11.1-63.43,11.58-94.72,2.76-9.29-2.62-18.22-6.24-27.01-10.16-6.39,5.29-12.02,11.51-16.78,18.35-1.65,2.37-8.65,13.36-8.24,15.47.33,1.68,9,5.14,11.11,6.06,34.48,14.97,65.59,19.34,102.76,22.04,3.96.29,4.34,1.43.72,3-33.18,2.16-66.26,3.39-99.17-2.45-6.7-.38-15.53-4.27-21.88-4.29-1.44,0-1.07-.14-1.13,1.12-.2,3.79-.56,7.09,3.55,8.43,7.11,2.31,17.73,1.23,25.21,3.19,52.65,4.18,108.47,8.38,156.33-18.57.95-.53,2.99-1.35,3.23-2.37-4.24.6-8.31,2.06-12.53,2.78-21.45,3.65-46.28,4.16-67.81,1.71-2.03-.23-6.55-.74-8.14-1.46-.93-.42-.31-1.55-.45-2.29,5.6.15,11.22.44,16.83.74,17.07.92,34.41,1.57,51.46-.83,10.34-1.46,20.48-4.14,30.36-7.39ZM158.46,190.26c-29.24-3.43-57.48-12.44-84.1-24.67-1.48-.2-.89.23-1.26.95-1.22,2.41-4.15,12.8-3.48,15.03.18.59.56.95,1.16,1.08,28.13,6.5,56.21,8.91,85.07,8.35.9-.02,2.79.55,2.61-.74ZM267.56,175.31l-12.94,7.61c-14.38,7.86-29.66,12.61-45.51,16.52-.75.18-2.25.23-2.08,1.28,8.01-.97,16.23-.4,24.21-1.56s19.03-5.49,26.36-9.51c1.87-1.03,9.74-5.98,10.76-7.19,1.57-1.86-.68-4.89-.81-7.14ZM269.81,185.77l-19.42,11.2c1.59.02,3.19.08,4.78-.07,2.42-.22,10.42-1.22,12.21-1.99,3.78-1.63,2.14-5.8,2.43-9.14ZM74.76,206.69c-6.49-9.01-11.68-6.76-10.46,4.49l10.46-4.49ZM91.2,208.93c-3.8-6.16-9.75-7.26-16.44-8.21,1.76,2.2,3.84,4.51,5.96,6.36.7.61,4.66,3.94,4.97,4,1.25.27,3.83-2.34,5.5-2.16ZM263.83,200.72c-6.23.3-10.81,1.61-15.32,5.98-.49.48-1.76,1.72-1.12,2.23.89.72,4.94,1.78,6.21,1.38,2.62-.82,8.18-7.3,10.23-9.59ZM263.83,206.69c3.2.6,6.01,3.07,8.95,4.16,1.78.66,1.61-2.76,1.53-3.78-.14-1.98-1.43-5.67-3.51-6.28-1.97-.58-5.7,4.36-6.97,5.9ZM109.14,208.95c-6.04-3.56-11.22-6.82-18.68-5.98l7.85,6.71c4.85,3.66,4.94,3.18,10.37.79.85-.37.46-.83.46-1.52ZM247.39,202.96c-3.11-.11-6.75.12-9.73,1.11-1.07.35-9.88,4.98-8.21,6.36.21.17,4.71,2.08,4.98,2.11,2.04.23,11.13-7.51,12.96-9.57ZM127.82,210.44c-6.26-3.64-11.77-6.93-19.43-5.98,2.55,1.99,10.68,8.97,13.24,9.6,1.25.31,4.21-1.45,5.73-2.1.85-.36.46-.84.45-1.52ZM229.46,204.46c-7.63-.91-13.71,1.46-19.42,6.35,1.4,1.14,5.15,3.59,6.73,3.07,3.5-1.16,9.53-7.01,12.69-9.41ZM126.33,205.21c.16,1.07,1.41,1.39,2.17,1.94,1.82,1.33,10.42,7.26,11.83,7.65s6.64-1.3,6.92-2.5-2.21-2.39-3.05-2.92c-5.69-3.6-11.17-4.19-17.87-4.17ZM211.52,205.21c-8.5-1.08-14.98,1.4-21.67,6.34,1.77,1.34,5.52,3.86,7.67,3.25,1.9-.54,9.71-6.1,11.83-7.65.75-.55,2-.87,2.17-1.94ZM166.68,211.94c-6.64-3.83-11.99-7.3-20.18-5.98,2.29,2.45,11.8,9.21,14.68,9.54,1.47.17,6.98-2.37,5.49-3.56ZM191.34,205.95h-26.9c-.35,1.78.2,1.19.97,1.65,4,2.38,7.34,5.51,11.36,7.82,5.1-2.42,10.75-5.33,14.57-9.47ZM82.24,213.42c-.53-1.35-4.3-4.47-5.48-4.36-.5.05-8.2,3.92-8.99,4.48-4.01,2.9,3.29,3.15,5.82,2.82,3.14-.41,5.49-2.81,8.64-2.94ZM271.3,215.66c.73-.63-.62-1.68-1.23-2.12-1.14-.83-7.25-4.34-8.23-4.46-1.19-.14-4.53,2.37-4.73,3.23-.35,1.57,5.99,3.7,7.26,3.92,1.52.27,5.9.32,6.93-.58ZM6.01,238.83c13.57,1.34,31.11,1.74,43.58-4.62,2.76-1.41.88-7.63-.1-10.09-6.77-16.9-28.69-18.94-39.33-4.69-.56.75-2.54,4.09-2.67,4.81-.27,1.55.21.96,1.12,1.13,1.04.2,2.06.47,3.09.66,4.45.82,10.78.36,14.71,1.73.95.33,1.78,1.65,1.27,2.09-.88.75-4.99.84-6.36.76l-15.31-2.25v10.46ZM322.87,214.18c-13.3-8.2-30.17-3.13-35.12,11.94,10.4.05,23.43-2.69,32.07-8.65,1.26-.87,3.31-1.52,3.05-3.29ZM80.74,217.9c6.92,1.43,13.03,1.38,18.67-3.36-1.36-1.27-3.64-3.52-5.54-3.38l-13.13,6.74ZM257.85,217.16c-6.79-1.03-13.13-10.41-18.67-2.62,4.18,3.28,9.18,4.8,14.49,4.04l4.18-1.42ZM98.68,220.14c2.89-.68,6.63.76,9.15.59,1.6-.11,10.28-3.7,10.27-4.7-1.04-.65-4.92-3.84-5.59-3.88-1.17-.07-12.48,6.24-13.83,7.99ZM239.92,220.14c-.17-1.14-1.41-1.39-2.23-1.88-1.96-1.17-9.61-5.62-11.17-6-1.65-.4-4.96,2.47-6.02,3.77,0,1.49,8.56,4.51,10.29,4.7,2.99.33,6-1.17,9.13-.59ZM117.36,221.64c.43.39,9.85,0,11.58,0,.34,0,5.54-2.21,6.35-2.62,3.88-1.95,2.37-2.37-.52-3.95-.97-.53-2.4-1.62-3.47-1.51-1.84.2-7.1,3.9-9.18,4.99-1.22.64-2.68.86-3.81,1.42-.71.35-2.07.65-.95,1.66ZM221.24,221.64c-.21-.99-1.21-1.61-2.04-2.07-3.86-2.11-8.61-3.91-12.54-6.15l-6.34,3.35c.35.74,8.6,4.86,9.34,4.86h11.58ZM157.71,217.17c-.21-.16-2.16-.63-3.02-1.1-1.31-.71-2.46-2.17-3.92-1.81l-13.98,8.12c1.96-.37,3.79.65,5.6.76,5.22.31,9.76-2.12,14.25-4.44.47-.24,2.63-.37,1.08-1.54ZM201.8,221.65c-1.05-.12-2.11-.57-3.02-1.1-1.88-1.09-10.35-6.3-11.59-6.42-1.1-.11-6.31,2.98-6.3,3.4,4.74,4.09,11.22,6.13,17.48,5.53.7-.07,3.52-.37,3.43-1.42ZM156.22,223.14h26.16l-10.67-6.89-2.38-.61-13.11,7.5ZM287,229.86v10.46c12.53.35,25.78-1.87,37.56-6.16,1.8-.65,4.83-1.7,6.35-2.61.7-.42.99.04,1-1.31.03-4.72-3.03-9.98-6.42-13.07-10.18,8.86-25.26,12.15-38.49,12.68ZM69.53,221.64v121.81l6.72.74c-1.21-4.36-.5-8.67-.74-13.08-.45-8.52-1.74-18.37-.79-26.93.32-2.94,2.06-3.81,3.03-.72l1.58,41.01c.57,1.72,5.52,1.35,7.38,1.96-.85-7.74-1.08-15.71-.74-23.54.05-1.16-.7-2.96,1.11-2.61,1.38.9,1.04,2,1.16,3.33.68,7.88,1.01,15.73,1.46,23.57,8.13.53,16.18,2.18,24.28,3,15.78,1.59,32.03,2.64,47.83,2.99,8.68.19,17.14-.32,25.73-.82,1.38-4.49.56-9.16.8-13.77.07-1.27.71-2.45.76-3.72.39-9.66-.35-20.42.7-29.94.39-3.54,2.66-3.56,3.06,0,.91,8.03-.48,16.75-.79,24.69-.3,7.63-.38,15.2-.74,22.8,9.35.08,18.63-1.46,28.04-1.49l28.71-3.8,1.55-17.89c.47.08,2.24-.11,2.24,0v14.57c0,.33-1.23,1.53-.74,2.61l7.45-.77c.21-5.09.45-10.21.76-15.31.8-13.12.51-26.53,1.48-39.62.32-4.38,1.99-4.36,2.29,0,1.05,15.01-.02,29.17-.78,44.11-.16,3.1.13,6.25,0,9.35,1.1.21,6.63-.32,6.77-1.19l-.79-121.38-8.21.76c.47,4.81,3.62,37.22,2.23,38.85-.11.12-1.64-.08-2.24,0l-2.99-38.12c-4.78,0-9.4,1.25-14.2.75.1,2.1-.15,4.26,0,6.36,1.43,21.33,4.54,42.77,3.03,64.29-.09,1.34.2,2.43-1.16,3.33-1.93.34-.91-1.47-1.08-2.64-2.38-16.07-.04-34.36-2.27-50.8l-2.25-19.8c-12.42,1.14-24.82,2.44-37.37,2.25.91,13.04,3.24,26.93,2.27,40-.33,4.4-1.64,4.43-2.26-.03-1.07-7.74-.89-15.44-1.49-23.17-.41-5.32-1.83-10.69-1.5-16.06l-28.4.75v53.06c-.87.3-2.99-.34-2.99-1.12v-51.94l-68.75-3.74c-.04,4.6-1.1,9.26-1.5,13.82-.97,10.79-1.88,22.08-2.24,32.88-.3,9.02.7,18.81.02,27.67-.06.77-.44,4.77-1.87,4.1-1.32-.61-1.07-2.18-1.16-3.33-1.35-18.31,1.22-37.83,1.52-56.09l2.1-18.7c-.16-1.73-4.74-.92-6.21-1.08-1.93-.21-7.05-1.87-8.26-.06l-1.83,16.85c-.17,7.5-.56,15-1.5,22.42-.27,2.14,1.08,5.65-2.23,5.61-.61-15.38.74-30.58,2.27-45.86-.37-1.57-6.72-1.22-8.25-1.22ZM332.58,234.35c-4.1,1.42-7.96,3.39-12.13,4.68-10.68,3.32-22.32,4.69-33.46,5.03.51,4.5-2.09,8.58,3.54,9.54,8.5,1.46,29.85-4.13,37.73-8.25,5.82-3.04,4.25-4.85,4.31-11ZM51.6,266.48v-27.28c0-.22-1.01-1.09-.75-1.87-3.35,1.17-6.84,2.68-10.29,3.53-10.87,2.68-21.6,2.73-32.64,1.67-.78-.08-1.23-.58-1.9-.71v13.45c14.5,6.19,29.75,10.34,45.59,11.21ZM332.59,247.05l-13.62,5.43c-5.17,1.9-10.54,2.53-15.9,3.53-1.1.21-2.29,0-2.61,1.49,10.7,1.86,21.19,4.93,32.13,5.24v-15.69ZM332.56,266.5c-15.5-1.83-31-4.83-45.56-10.48.15,1.73-.35,3.84.13,5.47.54,1.85,9.35,4.79,11.65,5.54,10.91,3.55,22.47,5.33,33.8,6.93l-.02-7.45ZM6.01,259.01v17.94c14.42,6.24,29.78,10.52,45.59,11.21v-8.23c-8.63-.7-18.55-1.41-26.76-4.26-3.63-1.26-3.13-3.35.61-2.88,4.26.54,8.8,1.94,13.15,2.56,3.95.57,7.99.62,11.89,1.43,1.51-.13,1.85-6.62-.13-7.23-11.64-.58-24.05-2.99-35.04-6.81-3.16-1.1-6.12-2.81-9.33-3.75ZM332.59,291.14v-13.08c0-1.29-8.81-1.76-10.63-2.07-11.94-2.06-23.61-5.34-34.95-9.51v10.84c0,1.93,14.14,7.26,16.6,8.06,3.72,1.22,27.39,7.36,28.99,5.76ZM6.01,280.68v29.15c13.14-1,26.53-3.48,38.62-8.83,1.03-.45,6.64-2.92,6.86-3.23.3-.42.25-4.64,0-5.41-.65-2.03-5.55-1.03-7.68-1.29-8.96-1.11-19.98-3.65-28.49-6.63-3.16-1.11-6.12-2.81-9.33-3.75ZM332.59,301.61c-.2-1.6.63-5.56-.71-6.39s-12.3-2.15-15.14-2.8c-3.98-.91-7.87-2.11-11.81-3.13l-17.93-7.1c-1.61,8.22,3.36,9.06,9.72,11.58,11.33,4.48,23.76,6.73,35.87,7.85ZM287,292.64v20.18c9.02-.13,18.19-1.76,26.91-4.11,3.97-1.07,7.82-3.25,11.96-3.37.62-2.51-2.99-1.29-4.79-1.57-11.5-1.77-23.79-5.82-34.08-11.14ZM51.59,301.61l-13.46,5.59c-10.43,2.94-21.21,5.78-32.12,5.61v7.48c11.91-.61,24.02-2.72,35.11-7.12,5.9-2.34,12.15-3.8,10.47-11.57ZM332.58,306.09c-.88-.96-8.59,2.99-10.27,3.56-6.42,2.2-14.13,4.28-20.83,5.32-2.48.38-13.63.95-14.42,1.64-.4.35.16,5.44-.06,6.67,12.45-.03,25.91-2.46,37.56-6.91,5.67-2.16,8.96-3.04,8.02-10.28ZM51.59,312.07c-.39-.42-8.61,3.94-10.07,4.5-10.75,4.13-24.05,6.67-35.52,6.7v9.72c12.39-.61,25.21-2.47,36.82-6.9,1.96-.75,8.12-3.07,8.63-4.82.73-2.48-.25-6.5.13-9.21ZM332.58,317.3c-.59-.64-12.29,4.06-14.37,4.69-10.14,3.03-20.65,4.53-31.22,5.03l.06,11.91c9.39,2.33,19.81,2.96,29.5,2.33,2.2-.14,13.5-1.75,14.55-2.64,1.17-1,.76-5.91,1.48-7.86-6.6.71-13.05,3.2-19.79,3.74-4.93.39-8.48-2.08-3.01-3,5.48-.92,17.17-1.73,21.61-4.55,2.32-1.48.76-7.05,1.19-9.65ZM51.59,326.27c-14.44,5.86-29.9,9.68-45.59,9.71.02,2.55-.47,10.04,2.61,10.48,8.12,1.16,20.89-.98,28.79-3.37,2.77-.84,13.35-4.41,14.07-6.86.78-2.64-.28-7.06.13-9.96ZM9.75,350.19c11.56,17.19,38,11.48,41.1-8.97-12.52,6.54-27.03,9.02-41.1,8.97ZM331.84,341.96c-2.76,1.07-6.56.88-9.16,1.67-2.24.68-6.77,4.35-10.06,5.63-4.39,1.7-10.19,3.05-14.85,3.84-1.94.33-4.65-.89-4.03,1.56,2.67,1.13,4.66,3,7.48,4.11,13.71,5.43,27.7-2.65,30.63-16.81ZM313.15,344.95c-8.82.53-17.44-1.29-26.15-2.24,2.38,10.69,8.37,7.25,16.61,5.77l9.55-3.52ZM72.52,348.69c-5.25-1.55-9.11-1.12-8.96,5.22l8.96-5.22ZM272.8,347.94c-3.37-.43-6.44.48-9.22,2.36-.92.62-5.89,5.05-4.97,5.86,2.24-.3,4.77,2.15,6.71,1.15.7-.36,3.75-3.65,4.49-4.52.53-.63,3.52-4.38,3-4.85ZM89.71,351.68c-6.57-1.45-13.16-1.96-18.67,2.61,1.22.88,3.38,4.22,4.71,4.01l13.96-6.62ZM258.6,350.19c-7.08.69-12.5,2.17-17.18,7.84,1.18,1.08,3.9,2.88,5.43,2.51,2.52-.62,9.84-7.97,11.75-10.35ZM242.16,352.43c-7.7.78-13.71,2.35-19.42,7.84-.01.91,5.71,3.1,6.94,2.52l12.48-10.36ZM273.54,361.39c1.03-2.91.78-5.92.75-8.97l-5.97,6.36c-.28,1.65.37.85,1.05,1.16s3.98,1.67,4.17,1.45ZM106.15,353.92c-6.32-1.68-13.05-.62-18.68,2.61,1.59,1.48,3.66,4.46,6.18,4,1.16-.21,8.77-3.89,10.27-4.73.83-.47,2.05-.76,2.23-1.87ZM223.48,354.67c-3.88,1.12-8.13.52-11.97,1.85-1.25.43-8.18,4.54-8.2,5.24,1,.92,5.25,3.45,6.22,3.24,1.14-.25,7.89-5.17,9.39-6.3s3.58-2.36,4.55-4.03ZM124.83,355.41c-.43-.39-9.85,0-11.58,0-.68,0-7.49,3.37-7.84,4.11,1.86.76,3.63,3.34,5.6,3.33.71,0,11.58-5.03,12.87-5.78.61-.35,2.14-.6.96-1.66ZM77.75,365.87c-2.2-2.02-6.72-8.2-8.98-9.36-2.09-1.08-5.18.93-4.37,3.63,1.22,4.08,9.8,4.84,13.35,5.73ZM204.8,356.16c-7.59,1.11-16.04.41-21.67,6.71,4.33,1.25,5.85,4.95,10.4,1.07l11.27-7.78ZM144.26,356.91h-12.33c-.68,0-7.85,3.58-7.84,4.11,4.97,4.89,6.53,3.54,11.96.77l8.2-4.88ZM163.69,357.65h-11.58c-1.72,0-6.3,3.7-8.59,3.75-.36,1.77.21,1.18.97,1.64.89.53,4.13,2.59,4.63,2.59.63,0,8.5-4.11,9.85-4.85l4.72-3.13ZM183.87,357.65h-11.58c-.58,0-8.59,3.95-8.58,4.86,2.62,2.72,6.04,4.65,9.47,2l10.7-6.86ZM95.69,368.86c-3.18-3.84-7.67-6.53-11.19-10.1-3.01.73-8.25,1.12-4.44,4.44,4.85,4.22,9.36,5.07,15.63,5.66ZM269.07,362.89c-3.57.17-9.61-4.3-12.39-4.51-1.12-.09-5.13,2.59-5.55,3.39-.61,1.19,1.71,1.64,2.48,1.98,6.55,2.88,7.76,1.85,14.35.64,1.27-.23,1.24.32,1.1-1.5ZM232.45,364.39c1.89,2.29,8.03,4.18,10.92,4.44,1.23.11,8.53-.73,8.5-1.83l-13.4-6.02-6.02,3.42ZM114.37,371.1c-2.41-1.91-10.09-9.02-12.5-9.59-1.2-.29-6.18,1.65-6.18,2.5,3.34,2.57,6.46,5.72,10.88,6.3,2.58.34,5.15-.26,7.8.79ZM133.8,372.59c-1.85-1.83-11.4-9.23-13.19-9.56s-4.85,2.46-6.98,2.09c4.85,5.8,12.77,7.98,20.18,7.46ZM233.19,368.87c-4.06-.34-10.54-5.67-13.97-5.85-1.06-.06-5.27,2.94-6.21,3.97-.26.59,10.37,4,11.67,4.08,1.88.12,4.96-.63,7.39-.72,1.27-.05,2.09-.75,1.11-1.49ZM143.14,373.35c2.95.62,7.64-.45,10.84,0l-5-3.59c-2.42-.75-7.41-5.31-9.55-5.33-1.77,0-4.68,1.79-6.37,2.56,2.03,1.73,7.77,5.86,10.09,6.35ZM182,373.35c3.33.71,8.72-.52,12.33,0,.33-1.76-.16-1.19-.97-1.66-4.37-2.55-9.3-4.36-13.61-7.07l-6.34,3.87c0,.49,8.04,4.74,8.58,4.86ZM213.76,371.85c-.17-1.11-1.41-1.4-2.22-1.88-1.73-1.02-9.64-5.23-11.02-5.48-1.28-.23-6.92,2.59-6.92,3.25,5.9,4.48,12.96,6.24,20.17,4.1ZM174.16,372.61c-4.15-.75-12.18-8.09-15.9-7.37-.28.06-4.81,1.97-5.03,2.14-1.31,1.04.43,1.32.97,1.64,2.51,1.51,5.08,3,7.77,4.18,3.77.04,7.27,1.12,11.07.9,1.44-.08,1.18.12,1.11-1.48ZM69.53,368.86v15.32c0,.61,2.54,6.28,3.13,7.33,4.92,8.78,14.2,11.51,23.77,11.72-5.5-9.21-6.91-20.02-7.53-30.58l-19.38-3.79ZM269.06,368.86l-20.16,3.76c.02,10.46-2.36,20.76-6.75,30.24,0,1.37,10.06-1.11,11.22-1.48,5-1.61,10.52-6.33,12.84-11.07.67-1.37,2.85-7.98,2.85-9.11v-12.33ZM111.38,405.48c-5.4-9.45-5.99-20.02-6.31-30.68-1.54-.88-12.52-2.04-13.12-1.45,1.33,9.28,2.21,20.67,7.59,28.65,2.67,3.96,7.45,2.92,11.84,3.48ZM245.9,373.35l-12.7.74c-1,10.78-.89,21.83-6.73,31.38,4.38-.56,9.17.48,11.84-3.48,5.67-8.42,6.27-18.9,7.59-28.65ZM140.52,407.72c-3.19-9.64-4.61-19.81-5.56-29.94-.96-1.43-5.74-.39-7.53-.69l-19.05-2.25c0,6.95,1.36,25.63,6.76,30.23,2.11,1.8,9.32,1.62,12.31,1.89,4.31.39,8.61,1.27,13.06.76ZM229.45,374.84c-8.28,1.14-16.67,2.25-25.04,2.23l-1.53.71c-.66,10.15-2.48,20.09-4.81,29.94,3.98.57,7.84-.47,11.57-.76,2.58-.2,11.23-.18,12.77-1.43,5.67-4.6,7.49-23.59,7.04-30.69ZM199.57,377.83h-61.29c-1,.98,2.93,21.78,3.94,24.84.68,2.06,1.57,5.41,3.92,5.8,5.21.87,11.75-1,17.15.79l30.34-1.11c2.37-1.69,7.04-29.21,5.94-30.31ZM151.74,414.45c-15.48-.2-30.97-1.69-46.33-3.73-.31,1.52.72,1.74,1.72,2.39,3.31,2.15,10.04,4.3,13.97,5.46,9.93,2.94,20.35,4.2,30.65,4.86v-8.97ZM232.44,410.71l-25.02,3-21.31.74c.1,1.28-.25,2.81.1,4.02.64,2.25,10.6,1.65,12.98,2.72,7.45.05,14.97-.76,22.22-2.46,1.92-.45,9.17-2.32,10.32-3.13,1.28-.91.6-3.48.73-4.88ZM151.74,426.41c-15.86.34-32.06-3.81-46.33-10.46v11.58c0,.18-.76.66-.64,1.38.44,2.52,13.11,7.71,15.94,8.73,9.86,3.54,20.6,5.11,31.03,5.96v-17.19ZM232.44,418.94c-4.12.59-7.87,2.46-11.92,3.39-11.25,2.57-23.11,2.49-34.4.35.14,1.28-.24,2.8-.04,4.01.07.44,6.91,3.58,8.06,4.04,11.98,4.76,24.99,6.75,37.87,6.19,2.86-5.72-.23-11.97.44-17.98ZM232.45,440.6c-10.94.19-22.84-1.1-33.29-4.45-4.41-1.42-8.61-3.89-13.05-5.26-1.85,7.57,4.99,9.19,10.82,11.22,11.36,3.96,23.49,5.8,35.52,5.22v-6.73ZM105.4,434.63v18.68h19.8c3.47,0,16.25-3.94,19.99-5.42.8-.32,2.23-.22,2.05-1.3-8.38-.64-16.61-2.51-24.66-4.86l-17.18-7.1ZM186.11,441.35v12.7c10.86,2.02,21.46,1.55,32.15-1.11,1.9-.47,5.03-.72,5.96-2.62-8.25.2-17.18-1.26-25.06-3.71-4.46-1.38-8.64-3.75-13.05-5.26ZM131.93,466.01c-3.39.39-7.37-.29-10.84,0,.22-.86,1.21-1.83,2.02-2.09,3.16-1.02,8.49-1.11,12.2-2s12.54-3.65,15.22-5.71c2-1.54,1.32-7.4.82-7.4-14.43,6.59-30.11,9.06-45.95,8.23,4.12,25.31,38.08,27.59,45.58,2.99-.38-.34-7.01,2.77-8.38,3.2-2.66.83-8.16,2.48-10.68,2.78ZM233.19,451.07l-12.88,4.68c-8.41,2.31-17.62,3.29-26.36,2.8-.96-.05-7.14-1.68-7.1-.37,1.85,8.4,1.46,6.51,8.61,7.08,8.9.71,17.02-.1,25.78-2.6,1.59-.45,10.65-3.57,11.09-4.23.21-.31,1.11-7.09.86-7.36ZM230.95,463.03c-2.55.69-4.92,1.87-7.47,2.61-10.58,3.08-20.44,3.51-31.39,3.73,10.58,12.95,33.18,9.42,38.86-6.34Z"/>
      <path class="sk-cls-17" d="M134.55,340.46c.03-1.42-.63-2.7-.76-4.1-1.48-15.77-2.5-34.48-.77-50.12.32-2.94,2.06-3.81,3.03-.72.47,14.92-.64,29.97-.04,44.88.12,2.95,2.83,9.56-1.46,10.05Z"/>
      <circle class="sk-cls-3" cx="213.86" cy="157.94" r="9.66"/>
      <circle class="sk-cls-13" cx="124.14" cy="157.84" r="9.64"/>
    </g>
    <g>
      <path class="sk-cls-11" d="M56.63.63c3.04,3.92,5.6,11.29,8.85,14.69,1.61,1.69,4.13,2.39,5.93,3.79,4.03,3.14,6.6,7.16,7.1,12.33.14,1.48.43,8.53-1.12,8.59-7.54-3.1-13.9-6.59-15.13-15.5-.33-2.36.2-5.12-.35-7.12-1.05-3.79-7.62-10.53-8.67-14.51-.78-2.96,1.01-3.52,3.4-2.26Z"/>
      <path class="sk-cls-1" d="M284.74.45c1.85,2-7.77,14.21-8.61,17.15-.72,2.54-.1,5.13-.52,7.71-1.28,8-8.34,12.53-15.52,14.74-1.67-7.62-.65-15,5.61-20.17,2.09-1.72,4.92-2.63,6.74-4.47,3.19-3.21,6.77-13.56,10.05-15.38.31-.17,2.16.33,2.23.42Z"/>
      <path class="sk-cls-9" d="M75.51,4.92c3.25-.63,3.62,1.31,5.08,3.51,3.62,5.45,12.78,20.36,13.44,26.21.62,5.45-3.38,13.24-7.69,16.6-4.36-4.54-5.83-11.03-4.53-17.22.68-3.22,3.13-5.42,4.02-8.44l-9.75-16.39-.58-4.28Z"/>
      <path class="sk-cls-19" d="M259.45,5.04c1.25-.52,3.82-.13,3.54,1.64l-10.8,19.14c-.22.99,2.23,3.52,2.81,4.74,2.31,4.89,1.92,15.19-2.02,19.18-2.86,2.89-7.46-6.01-8.06-8.35-1.83-7.15-.07-10.77,3.08-16.8,3.49-6.67,8.07-12.81,11.45-19.55Z"/>
      <path class="sk-cls-16" d="M254.88,52.73c-1.68-1.77,5.93-8.81,7.68-9.85,4.81-2.87,9.29-1.9,14.6-2.22l9.83-16.69c.68-1.08,2.49-1.79,3.39-.37,1.07,1.68-2.92,7.6-3.99,9.49-7.33,12.96-13.74,25.95-31.51,19.65Z"/>
      <path class="sk-cls-8" d="M47.86,22.86c.6-.66,2.3.38,3,1.11,3.77,3.85,6.48,11.77,10.02,16.14,1.76,1.41,6.86.4,9.6.86,3.1.52,7.44,3.08,9.5,5.45,3.76,4.33,4.78,7-1.93,7.76-9.89,1.12-15.22-3.11-20.34-10.9-2.52-3.83-8.72-13.77-10.05-17.67-.25-.75-.14-2.38.2-2.74Z"/>
      <path class="sk-cls-12" d="M233.93,83.39c-1.02,1.29-6.04-5.4-6.59-6.48-3.62-7.09-2.84-15.26,2.49-21.16,8.4,7.55,10.16,17.9,4.1,27.64Z"/>
      <path class="sk-cls-2" d="M92.68,69.17c-.35.26-7.69,1.54-8.58,1.54-6.83.03-15.08-6-16.82-12.72,6.07-.9,11.89-2.46,17.72.59,1.93,1.01,9.8,9.01,7.68,10.59Z"/>
      <path class="sk-cls-5" d="M270.56,57.98c1.61,1.2-5.54,8.42-6.77,9.3-4.39,3.14-11.34,3.99-16.44,2.32-3.81-1.25-1.33-4.03.47-6.33,5.84-7.47,14.24-7.49,22.74-5.29Z"/>
      <path class="sk-cls-10" d="M107.33,56.53c2.87-.88,5.23,7.14,5.48,9.37.69,6.11-1.68,11.4-5.6,15.94-1.94,2.24-2.26,1.97-3.93-.43-3.56-5.13-3.6-12.4-1.01-17.96.46-.98,4.55-6.76,5.05-6.92Z"/>
      <path class="sk-cls-4" d="M261.59,74.43c-4.74,10.57-15.24,14.8-26.16,10.45,4.42-11.54,15.08-14.07,26.16-10.45Z"/>
      <path class="sk-cls-15" d="M77.01,74.43c8.39-2.94,17.63-1.82,23.17,5.59,3.62,4.84,2.4,5.82-3.36,6.36-9.34.88-16.63-3.05-19.81-11.96Z"/>
      <path class="sk-cls-6" d="M238.5,40.11c1.69-1.1,4.23,2.84,5.04,4.16,3.53,5.77,4.42,11.19,2.19,17.64-1.44,4.16-2.73,6.66-6.19,2.8-3.83-4.27-5.63-10.2-4.68-15.91.21-1.28,2.98-8.26,3.64-8.69Z"/>
      <path class="sk-cls-14" d="M98.34,40.07c1.62-.36,4.19,6.02,4.49,7.41,1.52,7.15-.84,15.79-7.5,19.47-4.4-5.53-5.7-13.26-2.5-19.68.61-1.23,4.58-7,5.52-7.2Z"/>
    </g>
  </g>
</svg>